<svg width="253" height="236" viewBox="0 0 253 236" fill="none" xmlns="http://www.w3.org/2000/svg">
<rect y="0.778687" width="253" height="234.336" rx="44" fill="#1C50C8"/>
<path d="M77.5076 206C71.899 206 67.1236 204.07 63.1814 200.209C59.2392 196.343 57.2681 191.65 57.2681 186.13C57.2681 180.614 59.2365 175.919 63.1733 172.042C67.0993 168.166 71.8721 166.227 77.4915 166.227C79.0662 166.227 80.7164 166.453 82.4421 166.903V166.903C85.3473 167.656 88.6051 167.056 90.5044 164.732L100.526 152.472C104.677 147.394 103.864 140.097 101.923 133.831C101.872 133.666 101.823 133.501 101.776 133.335V133.335C99.9856 127.068 96.6018 120.457 90.4016 118.446L81.0621 115.416C75.2033 113.515 68.9353 116.455 63.6667 119.645V119.645C60.5443 121.533 57.0631 122.477 53.2234 122.477C47.604 122.477 42.8313 120.547 38.9052 116.686C34.9684 112.82 33 108.127 33 102.607C33 97.0917 34.9657 92.3958 38.8971 88.5193C42.8232 84.6428 47.5905 82.7045 53.1991 82.7045C58.8077 82.7045 63.5832 84.6402 67.5254 88.5114C71.4676 92.372 73.4387 97.0652 73.4387 102.591C73.4387 103.264 73.4117 103.784 73.3578 104.15V104.15C73.2624 104.807 73.6987 105.4 74.3266 105.615L92.8257 111.956C98.8854 114.033 105.458 111.1 110.484 107.128C110.624 107.018 110.766 106.908 110.909 106.799C111.333 106.475 111.766 106.166 112.21 105.871C117.515 102.351 122.444 97.2903 122.444 90.924V81.2527C122.444 74.9857 117.482 70.0625 112.74 65.9656C111.84 65.1881 111.011 64.3193 110.253 63.3591C107.282 59.5939 105.796 55.4152 105.796 50.8227C105.796 45.3606 107.762 40.6913 111.693 36.8148C115.625 32.9383 120.397 31 126.011 31C131.62 31 136.395 32.9356 140.338 36.8068C144.28 40.6674 146.251 45.3606 146.251 50.8864C146.251 55.4364 144.757 59.5939 141.769 63.3591C141.011 64.3146 140.184 65.1796 139.289 65.954C134.552 70.0494 129.603 74.9788 129.603 81.2402V90.916C129.603 97.2823 134.547 102.329 139.823 105.891C140.247 106.177 140.661 106.477 141.066 106.791C141.287 106.962 141.504 107.135 141.719 107.311C146.588 111.292 153.022 114.073 158.972 112.033L177.637 105.633C178.278 105.414 178.608 104.749 178.608 104.07V104.07V102.591C178.608 97.0652 180.574 92.372 184.506 88.5114C188.432 84.6402 193.202 82.7045 198.816 82.7045C204.424 82.7045 209.2 84.6375 213.142 88.5034C217.084 92.364 219.055 97.0545 219.055 102.575C219.055 108.09 217.087 112.786 213.15 116.663C209.229 120.539 204.457 122.477 198.832 122.477C195.024 122.477 191.546 121.533 188.397 119.645V119.645C183.1 116.476 176.825 113.524 170.954 115.428L161.654 118.446C155.453 120.457 152.074 127.053 150.279 133.319V133.319C150.254 133.408 150.228 133.497 150.201 133.585C148.299 139.923 147.431 147.306 151.624 152.425L161.587 164.586C163.488 166.907 166.701 167.607 169.613 166.88V166.88C171.339 166.445 172.986 166.227 174.556 166.227C180.175 166.227 184.953 168.16 188.89 172.026C192.821 175.887 194.787 180.577 194.787 186.098C194.787 191.613 192.824 196.309 188.898 200.185C184.967 204.062 180.194 206 174.58 206C168.971 206 164.196 204.064 160.254 200.193C156.311 196.333 154.34 191.639 154.34 186.114C154.34 183.748 154.726 181.471 155.497 179.281V179.281C156.892 175.357 157.393 170.752 154.777 167.512L146.101 156.772C141.944 151.624 134.442 150.774 127.837 151.18C127.262 151.215 126.677 151.233 126.084 151.233C125.395 151.233 124.717 151.209 124.05 151.162C117.506 150.694 110.115 151.569 105.998 156.678L97.2375 167.55C94.6248 170.792 95.006 175.385 96.4772 179.281V179.281C97.3023 181.471 97.7149 183.748 97.7149 186.114C97.7149 191.639 95.7518 196.333 91.8258 200.193C87.8944 204.064 83.1217 206 77.5076 206ZM53.2234 114.523C56.5508 114.523 59.4064 113.353 61.79 111.015C64.1683 108.671 65.3574 105.863 65.3574 102.591C65.3574 99.3189 64.1683 96.511 61.79 94.167C59.4064 91.8284 56.5508 90.6591 53.2234 90.6591C49.896 90.6591 47.0404 91.8284 44.6568 94.167C42.2785 96.511 41.0894 99.3189 41.0894 102.591C41.0894 105.863 42.2785 108.671 44.6568 111.015C47.0404 113.353 49.896 114.523 53.2234 114.523ZM77.4915 198.045C80.8189 198.045 83.6744 196.876 86.0581 194.538C88.4364 192.194 89.6255 189.386 89.6255 186.114C89.6255 182.842 88.4364 180.034 86.0581 177.69C83.6744 175.351 80.8189 174.182 77.4915 174.182C74.164 174.182 71.3085 175.351 68.9248 177.69C66.5466 180.034 65.3574 182.842 65.3574 186.114C65.3574 189.386 66.5466 192.194 68.9248 194.538C71.3085 196.876 74.164 198.045 77.4915 198.045ZM126.028 62.8182C129.355 62.8182 132.211 61.6489 134.594 59.3102C136.972 56.9663 138.162 54.1583 138.162 50.8864C138.162 47.6144 136.972 44.8064 134.594 42.4625C132.211 40.1239 129.355 38.9545 126.028 38.9545C122.7 38.9545 119.845 40.1239 117.461 42.4625C115.083 44.8064 113.894 47.6144 113.894 50.8864C113.894 54.1583 115.083 56.9663 117.461 59.3102C119.845 61.6489 122.7 62.8182 126.028 62.8182ZM126.028 143.278C130.757 143.278 134.791 141.637 138.129 138.355C141.467 135.072 143.139 131.105 143.145 126.455C143.145 121.804 141.473 117.837 138.129 114.555C134.786 111.272 130.752 109.628 126.028 109.623C121.298 109.623 117.264 111.267 113.926 114.555C110.588 117.842 108.916 121.809 108.911 126.455C108.911 131.105 110.582 135.072 113.926 138.355C117.27 141.637 121.303 143.281 126.028 143.286M174.564 198.045C177.891 198.045 180.747 196.876 183.13 194.538C185.509 192.194 186.698 189.386 186.698 186.114C186.698 182.842 185.509 180.034 183.13 177.69C180.747 175.351 177.891 174.182 174.564 174.182C171.236 174.182 168.381 175.351 165.997 177.69C163.619 180.034 162.43 182.842 162.43 186.114C162.43 189.386 163.619 192.194 165.997 194.538C168.381 196.876 171.236 198.045 174.564 198.045ZM198.832 114.523C202.159 114.523 205.015 113.353 207.398 111.015C209.777 108.671 210.966 105.863 210.966 102.591C210.966 99.3189 209.777 96.511 207.398 94.167C205.015 91.8284 202.159 90.6591 198.832 90.6591C195.504 90.6591 192.649 91.8284 190.265 94.167C187.887 96.511 186.698 99.3189 186.698 102.591C186.698 105.863 187.887 108.671 190.265 111.015C192.649 113.353 195.504 114.523 198.832 114.523Z" fill="white"/>
<path d="M91.1423 185.368C91.1423 192.736 85.0683 198.708 77.5757 198.708C70.0832 198.708 64.0092 192.736 64.0092 185.368C64.0092 178 70.0832 172.028 77.5757 172.028C85.0683 172.028 91.1423 178 91.1423 185.368Z" fill="white"/>
<path d="M91.1423 185.368C91.1423 192.736 85.0683 198.708 77.5757 198.708C70.0832 198.708 64.0092 192.736 64.0092 185.368C64.0092 178 70.0832 172.028 77.5757 172.028C85.0683 172.028 91.1423 178 91.1423 185.368Z" stroke="#1C50C8"/>
<path d="M188.046 185.368C188.046 192.736 181.972 198.708 174.48 198.708C166.987 198.708 160.913 192.736 160.913 185.368C160.913 178 166.987 172.028 174.48 172.028C181.972 172.028 188.046 178 188.046 185.368Z" fill="white"/>
<path d="M188.046 185.368C188.046 192.736 181.972 198.708 174.48 198.708C166.987 198.708 160.913 192.736 160.913 185.368C160.913 178 166.987 172.028 174.48 172.028C181.972 172.028 188.046 178 188.046 185.368Z" stroke="#1C50C8"/>
<path d="M211.303 101.514C211.303 108.881 205.229 114.854 197.736 114.854C190.244 114.854 184.17 108.881 184.17 101.514C184.17 94.146 190.244 88.1733 197.736 88.1733C205.229 88.1733 211.303 94.146 211.303 101.514Z" fill="white"/>
<path d="M211.303 101.514C211.303 108.881 205.229 114.854 197.736 114.854C190.244 114.854 184.17 108.881 184.17 101.514C184.17 94.146 190.244 88.1733 197.736 88.1733C205.229 88.1733 211.303 94.146 211.303 101.514Z" stroke="#1C50C8"/>
<path d="M67.885 101.383C67.885 109.235 61.407 115.629 53.3804 115.629C45.3538 115.629 38.8758 109.235 38.8758 101.383C38.8758 93.531 45.3538 87.137 53.3804 87.137C61.407 87.137 67.885 93.531 67.885 101.383Z" fill="white" stroke="#1C50C8" stroke-width="2"/>
<path d="M92.2639 187.685C92.2639 195.537 85.7859 201.931 77.7593 201.931C69.7327 201.931 63.2547 195.537 63.2547 187.685C63.2547 179.832 69.7327 173.438 77.7593 173.438C85.7859 173.438 92.2639 179.832 92.2639 187.685Z" fill="white" stroke="#1C50C8" stroke-width="2"/>
<path d="M189.779 185.287C189.779 193.14 183.301 199.534 175.275 199.534C167.248 199.534 160.77 193.14 160.77 185.287C160.77 177.435 167.248 171.041 175.275 171.041C183.301 171.041 189.779 177.435 189.779 185.287Z" fill="white" stroke="#1C50C8" stroke-width="2"/>
<path d="M141.022 51.0407C141.022 58.8929 134.544 65.287 126.517 65.287C118.49 65.287 112.012 58.8929 112.012 51.0407C112.012 43.1885 118.49 36.7945 126.517 36.7945C134.544 36.7945 141.022 43.1885 141.022 51.0407Z" fill="white" stroke="#1C50C8" stroke-width="2"/>
<path d="M211.72 101.383C211.72 109.235 205.242 115.629 197.216 115.629C189.189 115.629 182.711 109.235 182.711 101.383C182.711 93.531 189.189 87.137 197.216 87.137C205.242 87.137 211.72 93.531 211.72 101.383Z" fill="white" stroke="#1C50C8" stroke-width="2"/>
<ellipse cx="128.078" cy="126.89" rx="19.5031" ry="19.1781" fill="white"/>
</svg>
