<svg width="398" height="416" viewBox="0 0 398 416" fill="none" xmlns="http://www.w3.org/2000/svg">
<g filter="url(#filter0_d_71_139)">
<rect x="1.06055" y="239.195" width="445.259" height="38" rx="9" transform="rotate(-32.4934 1.06055 239.195)" fill="#1C50C8"/>
<rect x="23" y="245.09" width="413.711" height="6.01005" rx="3.00503" transform="rotate(-32.4934 23 245.09)" fill="black"/>
<rect x="1.06055" y="379.195" width="445.259" height="38" rx="9" transform="rotate(-32.4934 1.06055 379.195)" fill="#140D0C"/>
<rect x="27" y="382.588" width="409.054" height="6.26753" rx="3.13376" transform="rotate(-32.4934 27 382.588)" fill="#1C50C8"/>
<g clip-path="url(#clip0_71_139)">
<path d="M139.677 13.2313C139.463 9.58697 136.376 6.53956 132.829 5.43998C129.283 4.3404 125.395 4.89543 121.87 6.04737C114.168 8.55022 107.695 13.6921 101.413 18.7187C91.6607 26.531 82.1857 37.244 78.4684 49.0357C75.659 57.9161 74.8472 63.7177 77.7313 73.1636C80.2843 81.5204 82.3032 89.6154 81.7905 96.6004C80.9893 107.649 79.622 110.246 76.7272 121.084C74.9112 127.87 81.0748 145.589 81.0748 145.589L120.054 130.97C133.972 124.561 163.925 112.602 163.925 112.602L139.677 13.2313Z" fill="black"/>
<path d="M117.768 142.793C117.832 133.504 117.917 127.033 117.917 127.095C117.917 127.095 100.901 123.242 97.4716 99.4488C95.7625 87.6152 94.8759 68.7967 96.1684 52.9941C97.3328 38.7729 107.267 21.4624 121.709 23.2112L166.702 35.1705C171.092 35.7046 172.556 39.3698 172.396 43.7053L172.727 45.7369L169.426 113.67L170.847 142.563C170.27 155.475 157.238 167.214 144.077 167.801C129.507 168.45 117.671 157.088 117.768 142.793Z" fill="#FFB1AA"/>
<path d="M106.348 71.9488C106.263 73.5511 107.577 74.9543 109.286 75.0695C110.995 75.1847 112.448 73.9909 112.533 72.3782C112.619 70.7759 111.305 69.3727 109.596 69.2575C107.887 69.1423 106.434 70.3466 106.348 71.9488Z" fill="black"/>
<path d="M102.268 63.6967C102.642 64.0947 105.024 62.4296 108.367 62.5029C111.711 62.5239 114.125 64.2518 114.499 63.8538C114.681 63.6758 114.296 62.9532 113.249 62.1783C112.213 61.4033 110.429 60.6389 108.346 60.6074C106.263 60.5865 104.501 61.3091 103.486 62.0526C102.45 62.8066 102.086 63.5187 102.268 63.6967Z" fill="black"/>
<path d="M137.626 71.5823C137.54 73.1845 138.854 74.5878 140.563 74.703C142.272 74.8182 143.725 73.6244 143.81 72.0116C143.896 70.4094 142.582 69.0061 140.873 68.8909C139.164 68.7757 137.711 69.98 137.626 71.5823Z" fill="black"/>
<path d="M134.314 63.6025C134.688 64.0109 137.081 62.3353 140.414 62.4086C143.746 62.4296 146.171 64.1575 146.545 63.7595C146.727 63.5815 146.353 62.8589 145.295 62.084C144.259 61.3091 142.475 60.5341 140.392 60.5132C138.309 60.4922 136.547 61.2148 135.532 61.9583C134.496 62.7123 134.133 63.4244 134.314 63.6025Z" fill="black"/>
<path d="M120.897 88.3797C120.919 88.1912 118.846 87.8037 115.492 87.3324C114.638 87.2277 113.836 87.0497 113.698 86.4842C113.505 85.8768 113.879 84.9762 114.306 84.0128C115.14 82.0021 116.026 79.8972 116.945 77.6876C120.609 68.6815 123.279 61.2672 122.906 61.1206C122.532 60.9844 119.263 68.1683 115.599 77.1744C114.712 79.3945 113.869 81.5099 113.067 83.5415C112.726 84.484 112.149 85.5522 112.565 86.8193C112.779 87.4476 113.399 87.9084 113.943 88.0655C114.488 88.2435 114.969 88.254 115.385 88.2854C118.772 88.5263 120.865 88.5682 120.887 88.3901L120.897 88.3797Z" fill="black"/>
<path d="M117.906 127.106C117.906 127.106 134.175 128.404 150.476 119.168C150.476 119.168 142.005 135.777 117.81 133.148L117.906 127.095V127.106Z" fill="#8A4A43"/>
<path d="M133.235 52.0202C133.631 52.8894 136.921 52.2402 140.873 52.4391C144.825 52.5648 148.051 53.4759 148.521 52.6381C148.724 52.2402 148.115 51.4443 146.78 50.6693C145.456 49.8944 143.383 49.2137 141.012 49.1194C138.651 49.0252 136.525 49.5383 135.137 50.1981C133.737 50.8578 133.064 51.6118 133.235 52.0202Z" fill="black"/>
<path d="M101.328 53.4759C102.011 54.2299 104.746 53.5073 108.025 53.5282C111.305 53.4549 114.061 54.1251 114.712 53.3607C115.001 52.9837 114.574 52.2401 113.377 51.5071C112.191 50.7845 110.205 50.1771 107.961 50.1981C105.707 50.219 103.753 50.8578 102.599 51.6013C101.424 52.3449 101.039 53.1093 101.339 53.4759H101.328Z" fill="black"/>
<path d="M137.178 94.9047C137.018 94.8733 136.804 95.732 136.184 96.9468C135.576 98.1616 134.465 99.7324 132.766 100.895C131.057 102.057 129.166 102.528 127.799 102.665C126.421 102.811 125.534 102.696 125.502 102.864C125.47 102.989 126.325 103.377 127.831 103.419C129.316 103.471 131.474 103.083 133.396 101.774C135.319 100.465 136.441 98.6223 136.911 97.24C137.391 95.8367 137.317 94.9152 137.189 94.9047H137.178Z" fill="black"/>
<path d="M95.549 80.3999L90.5284 60.5027C86.0206 54.4079 89.5456 44.4593 92.7396 37.621C95.9335 30.7722 102.022 25.5361 108.795 21.9965C115.567 18.4569 123.055 16.4567 130.511 14.6555C127.745 23.5254 120.78 32.0917 112.619 36.7937C112.619 36.7937 100.26 45.0772 98.0272 54.8373C95.5917 65.5084 95.5383 80.3999 95.5383 80.3999H95.549Z" fill="black"/>
<path d="M123.707 27.2326L159.032 48.0408C159.032 48.0408 160.122 63.8119 166.563 79.1851C173.079 73.7186 177.106 84.2536 179.061 76.1586C179.168 75.7397 177.267 93.1445 170.441 93.6891L169.319 112.612L203.01 104.496C203.01 104.496 201.194 81.5518 195.448 67.6447C191.869 58.9947 189.978 51.7375 186.453 43.0665C183.783 36.5005 179.04 26.688 175.472 22.0279C167.813 11.9955 139.484 11.5557 139.484 11.5557C126.997 14.446 135.404 13.0637 124.882 20.279L121.282 29.7459" fill="black"/>
<path d="M166.553 79.049C166.531 74.0432 171.99 70.4199 176.626 72.6714C179.168 73.9071 181.219 76.567 181.294 81.8764C181.497 96.0244 166.681 93.3226 166.649 92.9141C166.628 92.6628 166.585 84.9029 166.563 79.049H166.553Z" fill="#FFB1AA"/>
<path d="M171.061 87.4896C171.125 87.4477 171.317 87.6571 171.755 87.8456C172.182 88.0237 172.909 88.1388 173.667 87.8561C175.216 87.2801 176.487 84.8925 176.53 82.3372C176.551 81.0492 176.252 79.8239 175.761 78.8186C175.301 77.7923 174.596 77.0802 173.806 76.9545C173.026 76.7975 172.481 77.2478 172.3 77.6562C172.107 78.0541 172.204 78.3369 172.129 78.3578C172.086 78.3892 171.808 78.1274 171.915 77.541C171.969 77.2582 172.14 76.9231 172.481 76.6508C172.834 76.3681 173.347 76.2215 173.891 76.2738C175.024 76.3367 176.06 77.3211 176.605 78.4311C177.203 79.5412 177.566 80.913 177.545 82.3687C177.491 85.2171 176.006 87.9085 173.891 88.5368C172.855 88.8091 171.99 88.5263 171.541 88.1912C171.082 87.8456 170.997 87.5315 171.05 87.5105L171.061 87.4896Z" fill="#8A4A43"/>
<path d="M140.542 11.4824C140.542 11.4824 140.36 11.807 139.933 12.3306C139.495 12.8438 138.833 13.5559 137.967 14.4041C136.258 16.1006 133.791 18.3207 131.056 20.7608C128.322 23.2008 125.865 25.4209 124.113 27.065C122.361 28.7091 121.325 29.7668 121.261 29.7145C121.229 29.6935 121.464 29.4003 121.891 28.8872C122.318 28.374 122.991 27.6619 123.824 26.8032C125.501 25.0858 127.926 22.8133 130.672 20.3628C133.353 17.9751 135.778 15.8284 137.69 14.1319C139.484 12.5401 140.467 11.4405 140.531 11.4929L140.542 11.4824Z" fill="black"/>
<path d="M101.253 23.4835C101.253 23.4835 101.552 23.0646 102.193 22.3944C102.834 21.7242 103.817 20.7922 105.131 19.7659C107.748 17.7134 111.807 15.3048 116.806 14.0062C119.285 13.3569 121.87 13.1998 124.049 13.912C126.217 14.5822 127.873 16.0588 128.546 17.6296C129.229 19.2004 129.069 20.656 128.749 21.5252C128.599 21.9755 128.396 22.2792 128.257 22.4887C128.108 22.6876 128.022 22.7819 128.001 22.7714C127.948 22.74 128.3 22.3421 128.535 21.4729C128.781 20.6246 128.856 19.2528 128.172 17.7971C127.51 16.352 125.939 15.0115 123.888 14.3937C121.827 13.7444 119.37 13.9015 116.945 14.5298C112.042 15.8074 108.026 18.1218 105.376 20.0696C102.717 22.0279 101.339 23.5568 101.264 23.4835H101.253Z" fill="black"/>
<path d="M93.1669 37.7152C93.1669 37.7152 93.466 37.3278 94.0855 36.6994C94.7051 36.0711 95.6237 35.1705 96.7774 34.0919C99.0954 31.9555 102.396 29.0024 106.69 26.6357C108.837 25.4942 111.006 24.5307 113.142 24.1956C115.268 23.8291 117.308 24.1747 118.718 25.0229C120.139 25.8398 120.94 26.9603 121.282 27.7876C121.442 28.2065 121.528 28.5416 121.549 28.772C121.57 29.0024 121.57 29.128 121.549 29.128C121.496 29.128 121.453 28.6463 121.079 27.8714C120.695 27.1069 119.893 26.0911 118.515 25.358C117.159 24.6145 115.247 24.3213 113.217 24.6983C111.177 25.0439 109.062 25.9969 106.947 27.1278C102.727 29.4527 99.4159 32.3325 97.0338 34.3851C95.9122 35.3695 94.9721 36.2072 94.2244 36.8565C93.5621 37.443 93.1776 37.7466 93.1455 37.7257L93.1669 37.7152Z" fill="black"/>
<path d="M177.737 94.286C177.833 97.0193 175.654 99.3022 172.866 99.3964C170.078 99.4907 167.749 97.3544 167.653 94.6211C167.557 91.8879 169.736 89.6049 172.524 89.5107C175.312 89.4164 177.641 91.5528 177.737 94.286Z" fill="black"/>
<path d="M85.1982 235.744C83.9911 236.54 70.6706 239.703 67.4446 248.007C64.2186 256.312 47.0846 273.203 59.4865 289.687L85.2089 275.706V235.744H85.1982Z" fill="#1C50C8"/>
<path d="M59.4652 289.729V289.708C57.2006 286.713 55.7799 283.498 55.2565 280.157C54.7865 277.214 54.968 274.188 55.8013 270.9C57.3288 264.92 60.8005 259.338 63.5885 254.856C65.2442 252.186 66.6863 249.882 67.4127 248.007C70.0511 241.211 79.4407 237.849 83.4464 236.415C84.333 236.1 84.9633 235.87 85.1876 235.723L85.2303 235.692V275.717H85.2197L59.4759 289.718L59.4652 289.729ZM85.1662 235.797C84.9099 235.943 84.2903 236.163 83.4571 236.467C79.462 237.902 70.0939 241.253 67.4554 248.028C66.7183 249.913 65.2869 252.217 63.6312 254.888C60.8432 259.37 57.3822 264.941 55.8547 270.91C55.0215 274.188 54.8399 277.204 55.3099 280.146C55.844 283.477 57.2433 286.681 59.4866 289.666L85.1769 275.696V235.797H85.1662Z" fill="black"/>
<path d="M114.862 166.869L116.977 138.363L169.907 116.707L171.787 127.347L135.724 145.338L114.862 166.869Z" fill="white"/>
<path d="M171.787 121.063C171.787 121.063 139.356 133.923 124.968 146.49C111.434 158.313 83.3077 204.883 80.2953 217.586C77.283 230.288 77.8705 265.433 77.8705 265.433C77.8705 265.433 77.7957 301.688 77.7957 302.567C77.7957 303.447 54.605 361.945 58.8244 393.843H191.1C191.1 393.843 195.021 348.949 185.973 331.513C176.936 314.087 176.637 317.626 176.637 317.626C176.637 317.626 182.063 311.72 181.454 306.4C180.856 301.08 177.534 296.651 177.534 296.651L200.736 225.754C200.736 225.754 203.15 190.012 196.815 166.083C190.887 143.652 188.676 144.919 181.262 137.746C181.102 137.589 181.358 137.945 181.262 137.746L174.522 132.321L171.787 121.042V121.063Z" fill="#1C50C8"/>
<path d="M85.1982 337.796C84.7816 336.267 95.218 318.119 95.218 318.119L155.005 327.962L159.171 344.435L85.2089 337.806L85.1982 337.796Z" fill="#1C50C8"/>
<path d="M85.1982 337.796C85.1982 337.796 85.3371 337.796 85.5827 337.806C85.8605 337.827 86.2237 337.848 86.683 337.88C87.6764 337.963 89.0971 338.068 90.9131 338.215C94.6091 338.529 99.9288 338.979 106.541 339.534C119.797 340.697 138.256 342.309 159.171 344.142L158.883 344.477C157.868 340.487 156.811 336.298 155.743 332.036C155.401 330.675 155.059 329.324 154.728 328.004L154.952 328.203C131.12 324.245 109.874 320.716 95.1859 318.276L95.3782 318.181C91.9172 324.192 89.2467 329.041 87.5055 332.424C86.6403 334.11 85.9993 335.44 85.6255 336.351C85.4332 336.811 85.305 337.157 85.2516 337.408C85.1875 337.649 85.2196 337.764 85.1982 337.785C85.1555 337.806 85.1448 337.241 85.5293 336.319C85.8818 335.387 86.4907 334.047 87.3239 332.34C89.0117 328.926 91.6288 324.046 95.0471 318.014L95.1111 317.899L95.2393 317.92C109.938 320.318 131.195 323.784 155.038 327.669L155.219 327.701L155.262 327.879C155.593 329.188 155.935 330.549 156.277 331.91C157.356 336.173 158.413 340.362 159.417 344.351L159.513 344.718L159.129 344.687C138.16 342.76 119.659 341.063 106.37 339.848C99.7792 339.22 94.4809 338.717 90.7956 338.372C89.001 338.194 87.6017 338.058 86.6189 337.953C86.1703 337.901 85.8071 337.869 85.5507 337.838C85.3157 337.806 85.1875 337.796 85.1982 337.785V337.796Z" fill="black"/>
<g opacity="0.3">
<path d="M72.3584 309.636L73.6937 320.255C83.2327 326.873 96.7135 325.617 106.904 320.025C117.095 314.432 124.668 305.248 131.665 296.075C152.858 268.271 171.328 238.247 183.922 205.804C151.064 244.478 105.537 271.224 72.3584 309.636Z" fill="black"/>
</g>
<path d="M179.158 151.077C190.256 159.737 199.934 186.839 182.747 210.266C182.747 210.266 107.652 310.149 95.218 318.119C82.7841 326.088 66.0453 321.397 61.2597 309.678C56.4742 297.96 58.3863 286.702 65.0839 278.733C71.7816 270.764 115.781 194.798 115.781 194.798C115.781 194.798 125.822 159.591 142.913 149.359" fill="#1C50C8"/>
<path d="M142.914 149.359C142.914 149.359 142.657 149.548 142.144 149.893C141.621 150.218 140.884 150.773 139.923 151.517C138.032 153.035 135.468 155.559 132.691 159.266C127.157 166.67 120.876 178.765 115.963 194.84V194.861L115.941 194.882C106.285 211.543 94.2247 232.289 80.1991 255.568C76.6633 261.37 73.0421 267.36 69.1325 273.381C68.1177 274.868 67.1884 276.408 66.0561 277.864C65.5113 278.607 64.9558 279.33 64.4003 280.031C63.8449 280.743 63.3535 281.508 62.8728 282.283C61.9221 283.833 61.1637 285.498 60.5121 287.205C59.9245 288.933 59.4545 290.723 59.1875 292.556C58.6747 296.211 58.8243 300.002 59.6682 303.677C59.8818 304.599 60.1061 305.521 60.4052 306.421C60.6616 307.332 61.0141 308.222 61.3453 309.113C61.6764 310.003 62.1464 310.83 62.5523 311.689L63.3428 312.883C63.5992 313.28 63.8662 313.678 64.1974 314.034C66.6436 316.977 69.9871 319.281 73.7471 320.496C77.4859 321.732 81.5771 322.129 85.5401 321.491C89.1934 320.904 92.6971 319.511 95.6667 317.438C98.5188 315.218 100.954 312.474 103.411 309.846C108.261 304.515 112.833 299.08 117.287 293.697C126.175 282.932 134.539 272.387 142.465 262.302C150.38 252.217 157.836 242.572 164.78 233.535C168.241 229.011 171.584 224.633 174.799 220.424C176.402 218.319 177.972 216.256 179.5 214.234C181.016 212.203 182.597 210.276 183.858 208.223C186.646 204.275 188.462 200.013 189.829 195.919C190.118 194.882 190.406 193.845 190.694 192.84C190.983 191.824 191.079 190.798 191.282 189.792C191.72 187.792 191.741 185.813 191.912 183.917C192.158 176.283 190.556 169.759 188.579 164.774C186.582 159.769 184.114 156.281 182.245 154.145C181.764 153.621 181.38 153.119 180.984 152.752C180.589 152.386 180.247 152.082 179.97 151.831C179.425 151.338 179.158 151.066 179.158 151.066C179.158 151.066 179.446 151.297 180.002 151.789C180.279 152.03 180.621 152.333 181.038 152.689C181.444 153.045 181.839 153.548 182.33 154.072C184.232 156.198 186.742 159.664 188.782 164.691C190.801 169.686 192.446 176.241 192.222 183.928C192.051 185.834 192.04 187.834 191.602 189.845C191.41 190.85 191.303 191.897 191.026 192.913C190.748 193.929 190.459 194.966 190.171 196.023C188.804 200.149 186.988 204.453 184.2 208.443C182.929 210.517 181.348 212.444 179.841 214.486C178.314 216.507 176.744 218.58 175.152 220.685C171.947 224.895 168.615 229.273 165.154 233.807C158.221 242.865 150.786 252.51 142.881 262.606C134.966 272.701 126.613 283.257 117.725 294.033C113.271 299.415 108.699 304.861 103.839 310.202C102.631 311.542 101.371 312.851 100.1 314.16C98.7966 315.448 97.5147 316.747 96.0086 317.867C92.9535 320.004 89.3857 321.417 85.647 322.025C81.5878 322.674 77.4111 322.276 73.5869 320.998C69.7414 319.752 66.3017 317.396 63.7808 314.359C63.4389 314.003 63.1612 313.595 62.8942 313.176L62.0823 311.951C61.6657 311.071 61.1744 310.202 60.8325 309.301C60.5014 308.39 60.1382 307.5 59.8818 306.568C59.5827 305.657 59.3477 304.725 59.1448 303.782C58.2902 300.044 58.1406 296.19 58.6641 292.462C58.9311 290.598 59.4118 288.776 60.0207 287.016C60.683 285.267 61.4628 283.571 62.4348 282C62.9262 281.215 63.4283 280.44 63.9944 279.707C64.5712 278.984 65.1267 278.251 65.6501 277.528C66.7504 276.115 67.7011 274.565 68.7052 273.088C72.6042 267.077 76.2361 261.098 79.7825 255.306C93.8401 232.048 105.932 211.334 115.642 194.693L115.621 194.735C120.599 178.629 126.944 166.534 132.541 159.14C135.361 155.454 137.957 152.93 139.869 151.433C140.841 150.7 141.589 150.155 142.123 149.841C142.646 149.506 142.924 149.349 142.924 149.349L142.914 149.359Z" fill="black"/>
<path d="M109.799 226.675C109.799 226.675 107.866 221.712 104.009 221.062C100.153 220.403 92.6756 221.104 92.6756 221.104C92.6756 221.104 89.3855 223.534 89.4176 226.864C89.4496 230.194 90.1119 232.529 90.1119 232.529C90.1119 232.529 87.4094 228.958 83.8522 232.341C80.2951 235.723 77.1759 242.583 77.1759 242.583C77.1759 242.583 72.4438 244.07 70.6385 246.321C68.8332 248.573 67.7757 252.217 67.7757 252.217C67.7757 252.217 63.8981 254.531 64.507 259.464C65.1159 264.396 69.5276 266.47 69.5276 266.47C69.5276 266.47 83.6279 276.659 85.3584 275.35C87.0889 274.031 90.614 271.947 85.5293 267.548C80.4553 263.15 77.2721 260.364 77.2721 260.364L79.6649 256.752C79.6649 256.752 93.4661 266.051 95.688 265.611C97.8991 265.161 101.67 265.087 100.132 261.747C98.5828 258.406 85.6682 248.667 85.6682 248.667L87.1957 243.441C87.1957 243.441 102.119 253.359 104.565 251.767C107.011 250.186 109.19 249.442 106.712 246.175C104.234 242.907 93.4447 235.106 93.4447 235.106L97.8671 231.063C97.8671 231.063 108.282 232.802 109.81 226.686L109.799 226.675Z" fill="#FFB1AA"/>
<path d="M174.522 132.342C174.522 132.342 174.394 132.384 174.148 132.457C173.87 132.53 173.507 132.625 173.048 132.74C172.086 132.991 170.665 133.358 168.839 133.86C165.196 134.876 159.93 136.395 153.649 138.856C152.079 139.474 150.455 140.154 148.789 140.94C147.955 141.327 147.112 141.725 146.268 142.175C145.851 142.395 145.413 142.605 144.996 142.856C144.601 143.118 144.174 143.348 143.789 143.652C140.649 145.998 137.797 149.129 134.838 152.396C128.984 159.025 123.013 166.712 116.903 174.859C110.793 183.027 105.142 190.934 100.078 198.181C97.5468 201.804 95.1753 205.26 92.9748 208.517C90.7743 211.774 88.7875 214.831 87.3027 217.806C84.301 223.743 82.5278 228.843 81.3527 232.372C80.7759 234.142 80.3593 235.524 80.0816 236.456C79.9534 236.907 79.8466 237.252 79.7718 237.525C79.697 237.766 79.665 237.891 79.6543 237.881C79.6543 237.881 79.665 237.755 79.7184 237.504C79.7825 237.231 79.8679 236.875 79.9854 236.425C80.2311 235.472 80.6157 234.079 81.1605 232.309C82.2714 228.759 83.9912 223.628 86.9608 217.638C88.4243 214.632 90.4111 211.533 92.601 208.276C94.7801 205.008 97.1408 201.532 99.6618 197.898C104.704 190.641 110.344 182.713 116.454 174.545C122.575 166.377 128.567 158.7 134.453 152.072C137.434 148.794 140.296 145.673 143.522 143.285C143.918 142.982 144.366 142.741 144.783 142.469C145.21 142.217 145.648 142.018 146.075 141.788C146.919 141.338 147.774 140.94 148.618 140.552C150.295 139.777 151.94 139.097 153.51 138.489C159.834 136.07 165.121 134.604 168.785 133.651C170.612 133.169 172.054 132.845 173.026 132.625C173.496 132.53 173.859 132.447 174.137 132.394C174.383 132.342 174.522 132.331 174.522 132.331V132.342Z" fill="black"/>
<path d="M166.125 311.343C166.125 311.343 165.517 311.05 164.47 310.432C163.423 309.825 161.938 308.872 160.144 307.646C156.565 305.196 151.812 301.51 147.069 296.891C142.337 292.273 138.544 287.634 136.023 284.126C134.763 282.377 133.791 280.932 133.161 279.906C132.52 278.879 132.189 278.314 132.221 278.293C132.253 278.272 132.648 278.806 133.342 279.79C134.026 280.775 135.051 282.189 136.344 283.906C138.94 287.33 142.753 291.907 147.453 296.504C152.164 301.091 156.853 304.808 160.368 307.332C162.12 308.599 163.562 309.594 164.577 310.254C165.581 310.924 166.136 311.312 166.115 311.343H166.125Z" fill="black"/>
<g opacity="0.3">
<path d="M87.1211 337.963L88.9264 344.425L156.619 344.194L87.1211 337.963Z" fill="black"/>
</g>
</g>
<g clip-path="url(#clip1_71_139)">
<path d="M223.99 21.983C224.42 14.473 229.04 9.84301 235.51 6.01301C241.99 2.17301 250.38 1.79301 257.18 5.03301C261.72 7.19301 265.7 10.893 270.7 11.533C278.92 12.593 286.7 4.97301 294.77 6.88301C299.55 8.01301 303.18 12.783 303 17.693C302.82 22.593 298.83 27.093 293.98 27.853C299.36 28.633 302.41 35.443 300.42 40.503C298.43 45.563 292.78 48.503 287.34 48.623C281.9 48.743 276.67 46.523 271.97 43.793C267.26 41.063 262.87 37.783 257.97 35.433C253.06 33.083 247.42 31.713 242.16 33.113C235.04 35.003 230 41.723 228.14 48.853C226.28 55.983 227.08 63.513 228.19 70.793C229.3 78.073 230.7 85.423 230.01 92.753C229.93 93.613 229.74 94.603 228.98 95.013C227.89 95.613 226.63 94.583 225.83 93.633C216.74 82.853 209.79 70.263 205.51 56.823C203.03 49.013 201.66 41.423 204.64 33.793C207.62 26.163 217.67 18.903 223.99 22.003" fill="black"/>
<path d="M217.06 58.303L229.09 132.543C231.34 146.403 240.35 159.803 262.1 155.253C280.68 149.883 279.3 136.513 276.88 120.043C276.88 120.043 297.32 114.723 295.49 93.943C294.61 83.903 291.1 63.363 287.71 44.823C284.07 24.903 265.73 11.143 245.59 13.163L243.59 13.363C222.12 16.793 213.04 36.943 217.07 58.313L217.06 58.303Z" fill="#FBAB81"/>
<path d="M276.88 120.033C276.88 120.033 263.87 122.113 249.05 114.763C249.05 114.763 257.2 130.203 277.72 126.253L276.88 120.033Z" fill="#FF9A6C"/>
<path d="M280.66 65.603C280.87 67.163 279.73 68.633 278.1 68.883C276.48 69.133 274.99 68.073 274.78 66.513C274.57 64.953 275.71 63.483 277.33 63.233C278.95 62.983 280.44 64.043 280.66 65.603Z" fill="black"/>
<path d="M284.27 55.443C283.94 55.863 281.53 54.433 278.34 54.763C275.15 55.043 272.97 56.923 272.59 56.563C272.4 56.403 272.71 55.673 273.65 54.823C274.58 53.983 276.22 53.093 278.21 52.903C280.2 52.713 281.94 53.273 282.98 53.933C284.04 54.583 284.44 55.253 284.28 55.443H284.27Z" fill="black"/>
<path d="M250.78 67.513C250.99 69.073 249.85 70.543 248.22 70.793C246.6 71.043 245.11 69.983 244.9 68.423C244.69 66.863 245.83 65.393 247.45 65.143C249.07 64.893 250.56 65.953 250.78 67.513Z" fill="black"/>
<path d="M252.98 59.193C252.65 59.613 250.24 58.183 247.05 58.513C243.86 58.793 241.68 60.673 241.3 60.313C241.11 60.153 241.41 59.423 242.36 58.583C243.29 57.743 244.93 56.853 246.91 56.663C248.9 56.473 250.64 57.043 251.68 57.693C252.73 58.343 253.14 59.013 252.98 59.203V59.193Z" fill="black"/>
<path d="M266.93 81.683C266.9 81.503 268.85 80.963 272.02 80.223C272.83 80.053 273.58 79.813 273.66 79.243C273.79 78.633 273.36 77.793 272.87 76.883C271.91 74.993 270.9 73.003 269.84 70.923C265.61 62.433 262.46 55.413 262.8 55.243C263.14 55.073 266.85 61.823 271.09 70.323C272.11 72.423 273.09 74.413 274.03 76.333C274.43 77.223 275.07 78.223 274.77 79.483C274.61 80.113 274.06 80.613 273.55 80.813C273.04 81.023 272.59 81.083 272.19 81.143C268.97 81.643 266.97 81.863 266.94 81.673L266.93 81.683Z" fill="black"/>
<path d="M252.54 46.603C252.31 47.503 249.09 47.413 245.39 48.243C241.68 48.993 238.77 50.393 238.19 49.663C237.93 49.313 238.37 48.443 239.51 47.483C240.63 46.523 242.48 45.533 244.71 45.053C246.93 44.583 249.02 44.733 250.44 45.153C251.87 45.573 252.63 46.183 252.54 46.603Z" fill="black"/>
<path d="M282.17 46.333C281.68 47.113 279.41 46.583 276.76 46.813C274.11 46.953 271.93 47.793 271.34 47.083C271.08 46.733 271.36 45.973 272.26 45.193C273.15 44.413 274.71 43.693 276.53 43.563C278.35 43.433 279.99 43.933 280.98 44.583C281.99 45.233 282.37 45.953 282.16 46.323L282.17 46.333Z" fill="black"/>
<path d="M220.3 73.503C219.93 73.383 205.61 70.723 207.49 84.863C209.37 99.013 223.18 94.203 223.15 93.793C223.12 93.383 220.29 73.503 220.29 73.503H220.3Z" fill="#FBAB81"/>
<path d="M218.12 89.003C218.05 88.963 217.9 89.213 217.51 89.453C217.13 89.693 216.45 89.913 215.67 89.733C214.1 89.383 212.53 87.173 212.12 84.633C211.91 83.353 212.02 82.093 212.34 81.013C212.63 79.923 213.21 79.113 213.94 78.873C214.67 78.603 215.26 78.983 215.48 79.353C215.72 79.723 215.67 80.013 215.75 80.033C215.79 80.063 216.02 79.753 215.83 79.183C215.73 78.913 215.52 78.603 215.16 78.373C214.78 78.143 214.27 78.063 213.75 78.193C212.67 78.413 211.82 79.543 211.47 80.733C211.06 81.923 210.91 83.353 211.14 84.793C211.61 87.633 213.42 90.103 215.55 90.423C216.58 90.553 217.37 90.143 217.75 89.753C218.14 89.343 218.17 89.023 218.12 89.003Z" fill="#FF9A6C"/>
<path d="M286.01 25.453C283.75 21.563 280.13 18.633 276.29 16.293C268 11.253 258.18 8.58302 248.51 9.40302C238.84 10.223 229.41 14.673 223.1 22.043C218.05 27.943 215.13 35.493 214.2 43.203C213.27 50.913 214.25 58.773 216.38 66.233C217.31 69.513 218.57 72.883 221.16 75.103C222.78 76.483 225.39 77.243 226.94 75.783C227.85 74.923 228.08 73.583 228.26 72.343C229.89 61.123 231.4 49.073 226.33 38.923C228.69 35.113 231.52 31.503 235.2 28.953C238.89 26.403 243.52 25.013 247.92 25.893C254.44 27.203 258.96 32.963 264.44 36.743C272.27 42.133 282.78 43.413 291.68 40.063L286.02 25.463L286.01 25.453Z" fill="black"/>
<path d="M299.5 9.763C299.5 9.763 299.63 10.073 299.78 10.693C299.88 11.323 300.03 12.263 299.87 13.483C299.64 15.873 298.24 19.453 294.74 22.173C291.26 24.933 285.76 26.043 280.09 25.183C274.35 24.393 268.61 21.633 262.6 19.163C256.62 16.693 250.44 15.023 244.92 16.033C239.4 16.973 235.12 20.143 232.31 23.253C229.45 26.393 227.85 29.513 226.92 31.693C226.01 33.903 225.7 35.193 225.61 35.173C225.58 35.173 225.64 34.843 225.79 34.223C225.91 33.603 226.2 32.713 226.59 31.563C227.43 29.313 228.96 26.093 231.83 22.823C234.65 19.593 239.02 16.233 244.78 15.203C250.55 14.103 256.93 15.823 262.96 18.313C269.01 20.813 274.66 23.543 280.23 24.343C285.73 25.233 291.01 24.213 294.36 21.663C297.76 19.133 299.2 15.743 299.53 13.443C299.89 11.093 299.39 9.783 299.51 9.773L299.5 9.763Z" fill="#1A1110"/>
<path d="M206.62 52.863C206.52 52.863 206.52 51.323 207.17 48.953C207.79 46.593 209.14 43.403 211.46 40.433C212.61 38.943 213.89 37.683 215.14 36.643C216.39 35.603 217.75 34.833 219.02 34.603C220.29 34.363 221.35 34.613 221.97 34.933C222.61 35.263 222.84 35.593 222.8 35.633C222.76 35.773 221.45 34.653 219.15 35.243C216.93 35.813 214.43 38.203 212.18 41.003C209.94 43.863 208.55 46.893 207.78 49.143C206.99 51.403 206.76 52.883 206.6 52.863H206.62Z" fill="#1A1110"/>
<path d="M210.37 65.103C210.27 65.083 210.4 63.553 211.17 61.203C211.93 58.863 213.46 55.743 215.89 52.833C218.33 49.933 221.13 47.873 223.3 46.703C225.47 45.523 226.96 45.133 226.99 45.223C227.05 45.363 225.67 45.973 223.63 47.263C221.6 48.543 218.96 50.613 216.6 53.423C214.25 56.243 212.69 59.203 211.78 61.433C210.87 63.663 210.52 65.133 210.36 65.103H210.37Z" fill="#1A1110"/>
<path d="M284.2 145.673C284.2 145.673 299.37 165.243 303.02 172.593C306.67 179.943 332.83 261.153 332.83 261.153L321.48 265.923L284.2 145.673Z" fill="#1A1110"/>
<path d="M223.16 127.353V117.543L278.28 135.463L293.05 159.103L304.43 192.113L272.52 144.163L223.16 127.353Z" fill="white"/>
<path d="M219.89 136.783C219.89 136.783 196.5 164.753 197 182.943C197.5 200.853 221.79 309.683 221.79 309.683L215.91 329.133L209.54 393.953H342.04L332.82 261.153C331.35 261.063 303.77 185.043 303.77 185.043L272.95 142.243L222.2 123.953L219.89 136.773V136.783Z" fill="#1A1110"/>
<path d="M320.85 229.523C320.85 229.523 330.12 229.153 334.96 231.313C339.8 233.473 343.89 232.393 347.32 239.093C350.74 245.793 354.74 248.813 355.58 258.963C356.42 269.113 345.46 292.623 338.22 295.923C330.98 299.223 320.86 229.513 320.86 229.513L320.85 229.523Z" fill="#1A1110"/>
<g opacity="0.3">
<path d="M217.21 228.603C217.21 228.603 271.38 279.453 278.27 284.313C285.16 289.173 286.18 319.923 294.67 320.513C303.16 321.093 330.66 300.753 330.66 300.753L249.17 223.983L217.21 228.603Z" fill="black"/>
</g>
<path d="M293.49 274.133C293.49 274.133 281.71 289.213 280.36 292.983C279.01 296.763 277.7 299.273 279.14 300.533C280.58 301.793 281.83 301.943 283.27 301.393C285.19 300.663 294.66 288.173 294.66 288.173C294.66 288.173 282.1 306.083 281.53 309.173C280.96 312.283 283.42 313.763 286.3 313.223C289.18 312.683 294.66 304.583 294.66 304.583C294.66 304.583 286.89 313.583 288.53 315.113C290.17 316.643 292.06 316.823 294.22 315.743C296.38 314.663 301.87 307.553 301.87 307.553C301.87 307.553 298.09 311.603 300.16 312.593C302.23 313.583 302.41 313.693 304.21 312.193C306.01 310.703 321.89 295.153 321.89 295.153L311.86 288.303L293.5 274.123L293.49 274.133Z" fill="#FFBF9D"/>
<path d="M298.32 283.343C298.38 283.393 297.65 284.343 296.47 285.873C295.2 287.533 293.62 289.583 291.88 291.853C290.07 294.183 288.38 296.253 287.11 297.713C285.84 299.173 285 300.023 284.95 299.983C284.89 299.933 285.63 298.993 286.83 297.483C288.11 295.833 289.71 293.793 291.47 291.533C293.27 289.203 294.93 287.113 296.19 285.643C297.44 284.163 298.27 283.303 298.32 283.353V283.343Z" fill="#FF9A6C"/>
<path d="M306.66 290.563C306.77 290.653 303.96 294.153 300.38 298.383C296.8 302.603 293.81 305.953 293.7 305.863C293.59 305.773 296.4 302.273 299.98 298.043C303.56 293.823 306.55 290.473 306.66 290.563Z" fill="#FF9A6C"/>
<path d="M313.35 295.093C313.46 295.193 310.51 298.583 306.77 302.663C303.03 306.753 299.91 309.983 299.8 309.883C299.69 309.783 302.64 306.393 306.38 302.313C310.12 298.223 313.24 294.993 313.35 295.093Z" fill="#FF9A6C"/>
<path d="M227.06 154.193C234.67 152.583 244.33 151.903 251.69 156.073L291.88 192.333C291.88 192.333 348.53 255.883 350.75 259.433C352.97 262.973 355.96 283.893 347.38 294.553C338.8 305.213 329.16 301.113 318.15 298.603C309.43 296.613 248.52 251.863 223.49 233.273C214.83 226.843 208.48 217.743 205.69 207.323C204.02 201.073 202.92 193.833 203.67 186.663" fill="#1A1110"/>
<path d="M203.66 186.653C203.66 186.653 203.65 187.003 203.59 187.693C203.54 188.383 203.49 189.413 203.47 190.753C203.45 193.443 203.65 197.433 204.65 202.463C205.16 204.973 205.82 207.743 206.85 210.683C207.87 213.623 209.33 216.693 211.23 219.773C213.15 222.843 215.55 225.933 218.51 228.803C221.42 231.723 225.04 234.173 228.71 236.923C243.46 247.793 261.06 260.703 280.87 274.653C285.83 278.133 290.93 281.673 296.18 285.213C301.44 288.743 306.83 292.343 312.52 295.643C313.95 296.443 315.39 297.263 316.91 297.893C317.65 298.223 318.43 298.403 319.26 298.593L321.7 299.183C324.95 299.993 328.23 300.823 331.59 301.143C334.93 301.433 338.44 301.063 341.4 299.353C344.37 297.713 346.86 295.153 348.65 292.223C351.54 287.223 352.6 281.413 352.79 275.793C352.89 272.963 352.79 270.143 352.44 267.373C352.27 265.983 352.04 264.613 351.75 263.263C351.4 261.943 351.12 260.543 350.4 259.433C348.76 257.273 346.9 255.183 345.15 253.113C343.36 251.053 341.59 249.003 339.83 246.973C336.29 242.933 332.8 238.953 329.38 235.053C315.62 219.513 302.92 205.153 291.7 192.483L291.72 192.503C275.11 177.473 261.41 165.073 251.58 156.183L251.6 156.203C248.03 154.203 244.4 153.503 241.31 153.203C238.2 152.933 235.55 153.083 233.43 153.273C231.31 153.483 229.72 153.753 228.65 153.933C228.12 154.033 227.73 154.103 227.44 154.153C227.17 154.203 227.03 154.213 227.03 154.213C227.03 154.213 227.57 154.083 228.63 153.863C229.7 153.663 231.29 153.373 233.41 153.143C235.53 152.933 238.18 152.753 241.32 153.013C244.43 153.293 248.1 153.983 251.72 155.993H251.73L251.74 156.013C261.6 164.873 275.33 177.233 291.99 192.213V192.233C303.26 204.863 316.01 219.183 329.74 234.753C333.16 238.653 336.65 242.623 340.2 246.673C341.96 248.703 343.74 250.753 345.53 252.813C347.3 254.903 349.12 256.933 350.83 259.183C351.05 259.463 351.17 259.823 351.34 260.133C351.48 260.463 351.58 260.803 351.7 261.133C351.93 261.803 352.08 262.493 352.25 263.173C352.55 264.543 352.78 265.933 352.95 267.343C353.3 270.143 353.41 272.993 353.3 275.843C353.1 281.523 352.04 287.403 349.08 292.523C347.23 295.543 344.71 298.133 341.63 299.843C338.56 301.613 334.92 301.983 331.53 301.693C328.11 301.373 324.81 300.523 321.56 299.723L319.12 299.133C318.32 298.953 317.47 298.743 316.69 298.403C315.13 297.753 313.69 296.933 312.25 296.123C306.53 292.803 301.15 289.193 295.89 285.663C290.63 282.113 285.54 278.563 280.58 275.083C260.78 261.113 243.21 248.163 228.48 237.263C224.83 234.513 221.19 232.043 218.27 229.083C215.31 226.183 212.9 223.073 210.98 219.973C209.08 216.853 207.62 213.763 206.61 210.803C205.59 207.843 204.94 205.063 204.45 202.543C203.48 197.503 203.31 193.493 203.36 190.793C203.43 188.093 203.65 186.683 203.65 186.683L203.66 186.653Z" fill="#263238"/>
<path d="M305.57 189.703C305.57 189.703 305.49 189.663 305.34 189.553C305.17 189.433 304.96 189.273 304.7 189.083C304.15 188.653 303.3 188.063 302.29 187.183C300.23 185.503 297.39 182.893 294 179.563C290.61 176.233 286.69 172.153 282.24 167.723C280 165.533 277.64 163.223 275.07 160.983C272.51 158.733 269.79 156.473 266.77 154.493C265.56 153.613 264.23 152.943 263 152.193L262.83 152.093L262.87 151.913C263.08 151.003 263.28 150.103 263.48 149.223L263.65 149.523C251.45 145.683 240.66 142.283 232.87 139.833C229.03 138.603 225.94 137.613 223.76 136.913C222.72 136.573 221.91 136.303 221.31 136.103C221.05 136.013 220.85 135.943 220.68 135.883C220.54 135.833 220.47 135.803 220.47 135.793C220.47 135.793 220.55 135.793 220.69 135.833C220.86 135.883 221.07 135.933 221.34 136.013C221.94 136.193 222.77 136.433 223.82 136.733C226.01 137.393 229.12 138.343 232.98 139.503C240.78 141.913 251.58 145.253 263.81 149.023L264.04 149.093L263.99 149.323C263.79 150.203 263.59 151.103 263.38 152.013L263.25 151.723C264.5 152.483 265.84 153.163 267.06 154.043C270.11 156.043 272.85 158.313 275.41 160.583C277.99 162.843 280.34 165.163 282.58 167.363C287.02 171.813 290.91 175.923 294.27 179.283C297.62 182.643 300.41 185.293 302.43 187.013C303.41 187.913 304.24 188.523 304.77 188.983C305.02 189.193 305.22 189.363 305.38 189.493C305.52 189.613 305.58 189.673 305.58 189.683L305.57 189.703Z" fill="#263238"/>
<path d="M325.46 230.643C325.44 230.713 325.02 229.933 324.33 228.593C323.62 227.173 322.63 225.223 321.44 222.843C319.02 217.983 315.72 211.243 312.1 203.783C308.48 196.323 305.24 189.553 302.92 184.643C301.79 182.233 300.87 180.253 300.2 178.813C299.91 178.163 299.67 177.633 299.49 177.213C299.33 176.843 299.26 176.653 299.27 176.643C299.29 176.643 299.39 176.813 299.58 177.173C299.79 177.583 300.06 178.093 300.38 178.723C301.09 180.143 302.06 182.093 303.25 184.483C305.66 189.423 308.94 196.133 312.57 203.553C316.15 210.993 319.39 217.733 321.77 222.683C322.91 225.093 323.84 227.063 324.52 228.503C325.16 229.873 325.51 230.673 325.47 230.633L325.46 230.643Z" fill="#263238"/>
<path d="M231.82 340.343C231.82 340.343 231.95 340.343 232.18 340.353C232.44 340.373 232.78 340.393 233.21 340.423C234.14 340.503 235.46 340.603 237.17 340.743C240.63 341.043 245.6 341.473 251.79 342.003C264.2 343.113 281.47 344.653 301.08 346.403L300.81 346.723C299.79 342.593 298.72 338.283 297.63 333.883C297.13 331.863 296.64 329.873 296.15 327.923L296.37 328.123C274.34 325.563 254.77 323.293 241.18 321.723L241.35 321.633C238.11 327.373 235.61 332.013 233.98 335.233C233.17 336.843 232.57 338.103 232.22 338.983C232.04 339.423 231.92 339.753 231.87 339.993C231.81 340.223 231.84 340.333 231.82 340.353C231.78 340.373 231.77 339.833 232.13 338.953C232.46 338.063 233.02 336.783 233.81 335.163C235.39 331.913 237.84 327.243 241.05 321.473L241.11 321.373H241.22C254.82 322.923 274.4 325.133 296.43 327.613L296.61 327.633L296.65 327.813C297.13 329.763 297.63 331.763 298.13 333.773C299.22 338.173 300.29 342.493 301.31 346.613L301.4 346.963L301.04 346.933C281.38 345.093 264.06 343.473 251.63 342.313C245.46 341.713 240.51 341.243 237.07 340.903C235.39 340.733 234.08 340.603 233.17 340.503C232.75 340.453 232.42 340.423 232.17 340.393C231.95 340.363 231.83 340.353 231.84 340.343H231.82Z" fill="#263238"/>
<g opacity="0.3">
<path d="M233.62 340.513L235.99 346.673L301.06 350.553V346.673L233.62 340.513Z" fill="black"/>
</g>
<path d="M276.931 90.8438C276.781 90.8138 276.581 91.6338 276.001 92.7938C275.431 93.9538 274.391 95.4538 272.801 96.5638C271.201 97.6738 269.431 98.1238 268.151 98.2538C266.861 98.3938 266.031 98.2838 266.001 98.4438C265.971 98.5638 266.771 98.9338 268.181 98.9738C269.571 99.0238 271.591 98.6538 273.391 97.4038C275.191 96.1538 276.241 94.3938 276.681 93.0738C277.131 91.7338 277.061 90.8538 276.941 90.8438H276.931Z" fill="black"/>
</g>
</g>
<defs>
<filter id="filter0_d_71_139" x="0.485352" y="2.84302" width="397.119" height="412.978" filterUnits="userSpaceOnUse" color-interpolation-filters="sRGB">
<feFlood flood-opacity="0" result="BackgroundImageFix"/>
<feColorMatrix in="SourceAlpha" type="matrix" values="0 0 0 0 0 0 0 0 0 0 0 0 0 0 0 0 0 0 127 0" result="hardAlpha"/>
<feOffset dy="4"/>
<feGaussianBlur stdDeviation="2"/>
<feComposite in2="hardAlpha" operator="out"/>
<feColorMatrix type="matrix" values="0 0 0 0 0 0 0 0 0 0 0 0 0 0 0 0 0 0 0.25 0"/>
<feBlend mode="normal" in2="BackgroundImageFix" result="effect1_dropShadow_71_139"/>
<feBlend mode="normal" in="SourceGraphic" in2="effect1_dropShadow_71_139" result="shape"/>
</filter>
<clipPath id="clip0_71_139">
<rect width="148" height="389" fill="white" transform="translate(55 4.84302)"/>
</clipPath>
<clipPath id="clip1_71_139">
<rect width="158.63" height="391.11" fill="white" transform="translate(197 2.84302)"/>
</clipPath>
</defs>
</svg>
