<svg width="655" height="92" viewBox="0 0 655 92" fill="none" xmlns="http://www.w3.org/2000/svg">
<path d="M156.992 83.2667C152.96 83.2667 149.264 82.5467 145.904 81.1067C142.544 79.6347 139.84 77.4747 137.792 74.6267C135.744 71.7787 134.688 68.2587 134.624 64.0667H141.92C141.92 66.8827 142.608 69.2027 143.984 71.0267C145.36 72.8187 147.184 74.1627 149.456 75.0587C151.728 75.9227 154.208 76.3547 156.896 76.3547C159.808 76.3547 162.336 75.8907 164.48 74.9627C166.624 74.0347 168.272 72.8187 169.424 71.3147C170.608 69.7787 171.2 68.0987 171.2 66.2747C171.2 63.7147 170.416 61.6507 168.848 60.0827C167.28 58.4827 164.96 57.1867 161.888 56.1947L151.232 52.4507C146.24 50.6587 142.464 48.6107 139.904 46.3067C137.344 44.0027 136.064 40.7707 136.064 36.6107C136.064 31.9387 137.856 28.1307 141.44 25.1867C145.056 22.2427 150.176 20.7707 156.8 20.7707C162.944 20.7707 167.744 22.1947 171.2 25.0427C174.656 27.8587 176.64 31.6507 177.152 36.4187H169.76C169.28 33.6347 167.968 31.4747 165.824 29.9387C163.712 28.3707 160.704 27.5867 156.8 27.5867C152.832 27.5867 149.744 28.4667 147.536 30.2267C145.328 31.9867 144.224 34.2107 144.224 36.8987C144.224 39.1067 144.912 40.8667 146.288 42.1787C147.696 43.4587 149.888 44.6107 152.864 45.6347L165.344 49.9547C169.664 51.3947 173.072 53.4107 175.568 56.0027C178.096 58.5947 179.36 61.9547 179.36 66.0827C179.36 69.2827 178.496 72.1787 176.768 74.7707C175.072 77.3627 172.56 79.4267 169.232 80.9627C165.904 82.4987 161.824 83.2667 156.992 83.2667ZM218.509 82.1147V16.6427H225.997V82.1147H218.509ZM224.845 55.8107L248.269 36.2267H258.733L224.845 63.7787V55.8107ZM250.573 82.1147L228.781 53.1227L236.365 51.7787L259.789 82.1147H250.573ZM299.608 25.3787C298.072 25.3787 296.856 24.9467 295.96 24.0827C295.064 23.1867 294.616 22.0187 294.616 20.5787C294.616 19.1707 295.064 18.0507 295.96 17.2187C296.856 16.3867 298.072 15.9707 299.608 15.9707C301.144 15.9707 302.36 16.3867 303.256 17.2187C304.152 18.0507 304.6 19.1707 304.6 20.5787C304.6 22.0187 304.152 23.1867 303.256 24.0827C302.36 24.9467 301.144 25.3787 299.608 25.3787ZM295.864 82.1147V36.1307H303.352V82.1147H295.864ZM346.759 82.1147V16.6427H354.247V82.1147H346.759ZM373.665 82.1147V16.6427H381.153V82.1147H373.665Z" fill="#1C1C1C"/>
<path d="M423.352 21.8267H430.84V48.4187H460.696V21.8267H468.088V82.1147H460.696V54.8507H430.84V82.1147H423.352V21.8267ZM541.552 36.1307H549.04V82.1147H541.552V36.1307ZM509.008 36.1307H516.496V64.7387C516.496 68.5787 517.424 71.4907 519.28 73.4747C521.168 75.4587 523.856 76.4507 527.344 76.4507C530.224 76.4507 532.72 75.6827 534.832 74.1467C536.976 72.6107 538.624 70.4987 539.776 67.8107C540.96 65.0907 541.552 61.9867 541.552 58.4987H544.336C544.336 63.6507 543.584 68.0507 542.08 71.6987C540.608 75.3467 538.512 78.1467 535.792 80.0987C533.104 82.0187 529.936 82.9787 526.288 82.9787C522.832 82.9787 519.808 82.3387 517.216 81.0587C514.624 79.7787 512.608 77.8427 511.168 75.2507C509.728 72.6267 509.008 69.3147 509.008 65.3147V36.1307ZM612.283 83.2667C609.211 83.2667 606.427 82.4667 603.931 80.8667C601.467 79.2667 599.499 76.9307 598.027 73.8587C596.587 70.7547 595.867 66.9787 595.867 62.5307H598.747C598.747 65.5067 599.355 68.0507 600.571 70.1627C601.819 72.2427 603.419 73.8267 605.371 74.9147C607.323 76.0027 609.371 76.5467 611.515 76.5467C613.979 76.5467 616.235 75.8427 618.283 74.4347C620.331 73.0267 621.963 71.0107 623.179 68.3867C624.427 65.7627 625.051 62.6267 625.051 58.9787C625.051 55.3947 624.443 52.3227 623.227 49.7627C622.011 47.1707 620.363 45.1867 618.283 43.8107C616.235 42.4027 613.947 41.6987 611.419 41.6987C609.243 41.6987 607.179 42.2427 605.227 43.3307C603.307 44.3867 601.739 45.9547 600.523 48.0347C599.339 50.1147 598.747 52.6747 598.747 55.7147H595.867C595.867 51.3627 596.571 47.6507 597.979 44.5787C599.419 41.5067 601.403 39.1547 603.931 37.5227C606.459 35.8907 609.403 35.0747 612.763 35.0747C616.379 35.0747 619.691 36.0507 622.699 38.0027C625.739 39.9227 628.171 42.6747 629.995 46.2587C631.819 49.8427 632.731 54.0827 632.731 58.9787C632.731 63.9067 631.803 68.1947 629.947 71.8427C628.091 75.4587 625.611 78.2747 622.507 80.2907C619.403 82.2747 615.995 83.2667 612.283 83.2667ZM591.259 82.1147V16.6427H598.747V71.3627L596.539 82.1147H591.259Z" fill="#1C50C8"/>
<path d="M0 9C0 4.02944 4.02944 0 9 0H90.3274C95.298 0 99.3274 4.02944 99.3274 9V83C99.3274 87.9706 95.298 92 90.3274 92H9C4.02944 92 0 87.9706 0 83V9Z" fill="#1C50C8"/>
<path d="M30.4294 80.5696C28.2274 80.5696 26.3526 79.8118 24.8049 78.2961C23.2572 76.7783 22.4834 74.9358 22.4834 72.7685C22.4834 70.6032 23.2562 68.7597 24.8017 67.2378C26.3431 65.7158 28.2169 64.9549 30.423 64.9549C31.0413 64.9549 31.6891 65.0434 32.3667 65.2203V65.2203C33.5072 65.5157 34.7862 65.2802 35.5319 64.368L39.3378 59.7119C41.0411 57.6282 40.6951 54.6296 39.957 52.0415V52.0415V52.0415C39.2478 49.5586 37.9093 46.9804 35.4531 46.1835L31.8357 45.0098C29.5292 44.2615 27.0695 45.4108 24.9955 46.6669V46.6669C23.7696 47.4081 22.4029 47.7787 20.8954 47.7787C18.6893 47.7787 16.8155 47.0209 15.2741 45.5052C13.7285 43.9874 12.9557 42.1449 12.9557 39.9776C12.9557 37.8123 13.7275 35.9688 15.271 34.4468C16.8123 32.9249 18.684 32.164 20.8859 32.164C23.0878 32.164 24.9627 32.9239 26.5104 34.4437C28.0581 35.9594 28.8319 37.8019 28.8319 39.9713C28.8319 40.2357 28.8213 40.4398 28.8002 40.5834V40.5834C28.7627 40.8413 28.934 41.0743 29.1805 41.1588L36.2439 43.5799C38.7377 44.4346 41.4468 43.2225 43.5425 41.6234V41.6234V41.6234C45.8159 39.8859 48.0713 37.6247 48.0713 34.7634V33.0103C48.0713 29.7291 45.3181 27.1447 43.2853 24.569V24.569C42.1187 23.0908 41.5354 21.4502 41.5354 19.6472C41.5354 17.5028 42.3071 15.6696 43.8506 14.1477C45.3941 12.6258 47.2678 11.8648 49.4719 11.8648C51.6738 11.8648 53.5487 12.6248 55.0964 14.1446C56.6441 15.6603 57.4179 17.5028 57.4179 19.6722C57.4179 21.4585 56.8314 23.0908 55.6585 24.569V24.569C53.6219 27.1355 50.882 29.7241 50.882 33.0005V34.7854C50.882 37.6322 53.1329 39.8753 55.3822 41.6202V41.6202V41.6202C57.4831 43.2502 60.2069 44.4344 62.7222 43.572L69.74 41.1658C69.9919 41.0795 70.1214 40.8184 70.1214 40.5522V40.5522V39.9713C70.1214 37.8019 70.8931 35.9594 72.4366 34.4437C73.978 32.9239 75.8507 32.164 78.0547 32.164C80.2567 32.164 82.1315 32.9229 83.6792 34.4406C85.2269 35.9563 86.0008 37.7978 86.0008 39.9651C86.0008 42.1303 85.228 43.9739 83.6824 45.4958C82.1431 47.0177 80.2694 47.7787 78.0611 47.7787C76.5663 47.7787 75.2007 47.4081 73.9642 46.6669V46.6669C71.8849 45.4227 69.4212 44.2635 67.1163 45.0113L63.4976 46.1854C61.0447 46.9812 59.7096 49.5562 58.9995 52.0353V52.0353V52.0353C58.2662 54.5919 57.9107 57.5628 59.5962 59.6203L63.4386 64.3105C64.1853 65.2219 65.4467 65.4964 66.5898 65.211V65.211C67.2674 65.0402 67.9142 64.9549 68.5303 64.9549C70.7365 64.9549 72.6123 65.7138 74.1579 67.2315C75.7014 68.7472 76.4731 70.5887 76.4731 72.756C76.4731 74.9212 75.7025 76.7648 74.1611 78.2867C72.6176 79.8086 70.7439 80.5696 68.5398 80.5696C66.3379 80.5696 64.4631 79.8097 62.9154 78.2898C61.3677 76.7742 60.5938 74.9316 60.5938 72.7622C60.5938 71.8337 60.7452 70.9395 61.0479 70.0796V70.0796C61.5955 68.5391 61.7924 66.7313 60.7651 65.4594L57.7919 61.7784C55.9131 59.4523 52.4905 59.0681 49.5005 59.0681V59.0681V59.0681C46.4682 59.0681 43.0159 59.4669 41.1133 61.828L38.1753 65.4741C37.1496 66.7471 37.2992 68.5503 37.8768 70.0796V70.0796C38.2007 70.9395 38.3627 71.8337 38.3627 72.7622C38.3627 74.9316 37.592 76.7742 36.0507 78.2898C34.5072 79.8097 32.6334 80.5696 30.4294 80.5696ZM20.8954 44.6557C22.2018 44.6557 23.3228 44.1967 24.2587 43.2785C25.1924 42.3583 25.6592 41.2559 25.6592 39.9713C25.6592 38.6868 25.1924 37.5844 24.2587 36.6641C23.3228 35.746 22.2018 35.2869 20.8954 35.2869C19.5891 35.2869 18.468 35.746 17.5322 36.6641C16.5985 37.5844 16.1316 38.6868 16.1316 39.9713C16.1316 41.2559 16.5985 42.3583 17.5322 43.2785C18.468 44.1967 19.5891 44.6557 20.8954 44.6557ZM30.423 77.4467C31.7294 77.4467 32.8505 76.9876 33.7863 76.0694C34.72 75.1492 35.1868 74.0468 35.1868 72.7622C35.1868 71.4777 34.72 70.3753 33.7863 69.455C32.8505 68.5369 31.7294 68.0778 30.423 68.0778C29.1167 68.0778 27.9956 68.5369 27.0598 69.455C26.1261 70.3753 25.6592 71.4777 25.6592 72.7622C25.6592 74.0468 26.1261 75.1492 27.0598 76.0694C27.9956 76.9876 29.1167 77.4467 30.423 77.4467ZM49.4783 24.3566C50.7846 24.3566 51.9057 23.8975 52.8415 22.9794C53.7752 22.0592 54.2421 20.9568 54.2421 19.6722C54.2421 18.3876 53.7752 17.2852 52.8415 16.365C51.9057 15.4469 50.7846 14.9878 49.4783 14.9878C48.1719 14.9878 47.0508 15.4469 46.115 16.365C45.1813 17.2852 44.7144 18.3876 44.7144 19.6722C44.7144 20.9568 45.1813 22.0592 46.115 22.9794C47.0508 23.8975 48.1719 24.3566 49.4783 24.3566ZM49.4783 55.9452C51.3351 55.9452 52.9188 55.3008 54.2294 54.0121C55.5399 52.7234 56.1963 51.166 56.1984 49.3402C56.1984 47.5143 55.542 45.957 54.2294 44.6682C52.9167 43.3795 51.333 42.7341 49.4783 42.732C47.6214 42.732 46.0377 43.3774 44.7271 44.6682C43.4166 45.9591 42.7602 47.5164 42.7581 49.3402C42.7581 51.166 43.4145 52.7234 44.7271 54.0121C46.0398 55.3008 47.6235 55.9462 49.4783 55.9483M68.5335 77.4467C69.8398 77.4467 70.9609 76.9876 71.8967 76.0694C72.8304 75.1492 73.2973 74.0468 73.2973 72.7622C73.2973 71.4777 72.8304 70.3753 71.8967 69.455C70.9609 68.5369 69.8398 68.0778 68.5335 68.0778C67.2271 68.0778 66.106 68.5369 65.1702 69.455C64.2365 70.3753 63.7697 71.4777 63.7697 72.7622C63.7697 74.0468 64.2365 75.1492 65.1702 76.0694C66.106 76.9876 67.2271 77.4467 68.5335 77.4467ZM78.0611 44.6557C79.3674 44.6557 80.4885 44.1967 81.4243 43.2785C82.358 42.3583 82.8249 41.2559 82.8249 39.9713C82.8249 38.6868 82.358 37.5844 81.4243 36.6641C80.4885 35.746 79.3674 35.2869 78.0611 35.2869C76.7547 35.2869 75.6337 35.746 74.6978 36.6641C73.7641 37.5844 73.2973 38.6868 73.2973 39.9713C73.2973 41.2559 73.7641 42.3583 74.6978 43.2785C75.6337 44.1967 76.7547 44.6557 78.0611 44.6557Z" fill="white"/>
<path d="M35.7823 72.4695C35.7823 75.362 33.3977 77.7069 30.4561 77.7069C27.5145 77.7069 25.1299 75.362 25.1299 72.4695C25.1299 69.5769 27.5145 67.232 30.4561 67.232C33.3977 67.232 35.7823 69.5769 35.7823 72.4695Z" fill="white"/>
<path d="M35.7823 72.4695C35.7823 75.362 33.3977 77.7069 30.4561 77.7069C27.5145 77.7069 25.1299 75.362 25.1299 72.4695C25.1299 69.5769 27.5145 67.232 30.4561 67.232C33.3977 67.232 35.7823 69.5769 35.7823 72.4695Z" stroke="#1C50C8"/>
<path d="M73.8266 72.4695C73.8266 75.362 71.442 77.7069 68.5004 77.7069C65.5588 77.7069 63.1742 75.362 63.1742 72.4695C63.1742 69.5769 65.5588 67.232 68.5004 67.232C71.442 67.232 73.8266 69.5769 73.8266 72.4695Z" fill="white"/>
<path d="M73.8266 72.4695C73.8266 75.362 71.442 77.7069 68.5004 77.7069C65.5588 77.7069 63.1742 75.362 63.1742 72.4695C63.1742 69.5769 65.5588 67.232 68.5004 67.232C71.442 67.232 73.8266 69.5769 73.8266 72.4695Z" stroke="#1C50C8"/>
<path d="M82.9572 39.5484C82.9572 42.441 80.5726 44.7859 77.631 44.7859C74.6894 44.7859 72.3048 42.441 72.3048 39.5484C72.3048 36.6559 74.6894 34.311 77.631 34.311C80.5726 34.311 82.9572 36.6559 82.9572 39.5484Z" fill="white"/>
<path d="M82.9572 39.5484C82.9572 42.441 80.5726 44.7859 77.631 44.7859C74.6894 44.7859 72.3048 42.441 72.3048 39.5484C72.3048 36.6559 74.6894 34.311 77.631 34.311C80.5726 34.311 82.9572 36.6559 82.9572 39.5484Z" stroke="#1C50C8"/>
<path d="M26.0441 39.4972C26.0441 42.2349 23.7825 44.4828 20.957 44.4828C18.1316 44.4828 15.87 42.2349 15.87 39.4972C15.87 36.7595 18.1316 34.5116 20.957 34.5116C23.7825 34.5116 26.0441 36.7595 26.0441 39.4972Z" fill="white" stroke="#1C50C8" stroke-width="2"/>
<path d="M35.6152 73.379C35.6152 76.1167 33.3536 78.3646 30.5282 78.3646C27.7027 78.3646 25.4411 76.1167 25.4411 73.379C25.4411 70.6413 27.7027 68.3934 30.5282 68.3934C33.3536 68.3934 35.6152 70.6413 35.6152 73.379Z" fill="white" stroke="#1C50C8" stroke-width="2"/>
<path d="M73.8997 72.4378C73.8997 75.1755 71.6381 77.4235 68.8126 77.4235C65.9872 77.4235 63.7256 75.1755 63.7256 72.4378C63.7256 69.7001 65.9872 67.4522 68.8126 67.4522C71.6381 67.4522 73.8997 69.7001 73.8997 72.4378Z" fill="white" stroke="#1C50C8" stroke-width="2"/>
<path d="M54.7575 19.7328C54.7575 22.4705 52.4958 24.7185 49.6704 24.7185C46.8449 24.7185 44.5833 22.4705 44.5833 19.7328C44.5833 16.9951 46.8449 14.7472 49.6704 14.7472C52.4958 14.7472 54.7575 16.9951 54.7575 19.7328Z" fill="white" stroke="#1C50C8" stroke-width="2"/>
<path d="M82.5137 39.4972C82.5137 42.2349 80.2521 44.4828 77.4266 44.4828C74.6012 44.4828 72.3395 42.2349 72.3395 39.4972C72.3395 36.7595 74.6012 34.5116 77.4266 34.5116C80.2521 34.5116 82.5137 36.7595 82.5137 39.4972Z" fill="white" stroke="#1C50C8" stroke-width="2"/>
<ellipse cx="50.2831" cy="49.5113" rx="7.65689" ry="7.52929" fill="white"/>
</svg>
